<?xml version="1.0" encoding="UTF-8"?>
<svg version="1.1" xmlns="http://www.w3.org/2000/svg" width="256" height="256">
<path d="M0 0 C8.58 0 17.16 0 26 0 C24.22085013 4.74439964 22.45832914 9.31936695 20.4375 13.9375 C9.54384124 40.18728014 18.8075434 70.52401021 28 96 C30.75957153 96 32.30931552 95.63611467 34.875 94.8125 C37.81365039 94.07112202 38.74005049 93.90931994 41.6875 94.9375 C46.50279101 99.23221901 50.49387794 104.65513675 51.25390625 111.1796875 C51.5939703 118.22230434 50.14969135 125.28059703 45.48828125 130.78515625 C44 132 44 132 42 132 C42.5775 133.13179687 43.155 134.26359375 43.75 135.4296875 C44.50020991 136.91135207 45.25019847 138.39312873 46 139.875 C46.3815625 140.62136719 46.763125 141.36773437 47.15625 142.13671875 C47.69765625 143.20986328 47.69765625 143.20986328 48.25 144.3046875 C48.58515625 144.96452637 48.9203125 145.62436523 49.265625 146.30419922 C50 148 50 148 50 150 C52.72996031 148.88779395 54.19304157 147.7962339 56.25 145.625 C59.15489014 142.85215032 61.66113961 141.58558779 65.328125 140.08984375 C67.10932369 139.13993076 67.10932369 139.13993076 67.74609375 137.3828125 C68.03790247 134.64429987 67.97866267 131.96350197 67.88330078 129.21411133 C67.20532845 107.41379405 73.53445642 84.50309627 88.4296875 68.1640625 C97.02979759 59.06557069 104.21655188 52.58241712 117 51 C115.0569064 29.2489522 103.14200422 15.09725561 88 0 C94.5951287 -0.46047736 101.18607651 -0.77310034 107.79370117 -0.98876953 C110.03453254 -1.07871874 112.27432387 -1.20115351 114.51147461 -1.35791016 C132.54516827 -2.58885155 132.54516827 -2.58885155 138.29681396 1.72109985 C142.8811986 6.52768995 146.0719369 12.07758754 149 18 C149.32980865 18.63737595 149.65961731 19.27475189 149.99942017 19.93144226 C153.37322177 26.47414389 155.1304708 31.77868255 155.0625 39.1875 C155.05347656 40.45980469 155.04445312 41.73210938 155.03515625 43.04296875 C155.01775391 44.50669922 155.01775391 44.50669922 155 46 C155.93199219 46.15855469 156.86398438 46.31710938 157.82421875 46.48046875 C173.47425291 49.34463071 189.32849693 54.1829517 199.1953125 67.62890625 C210.93949719 85.31904609 218.21050374 108.85109457 214.32421875 130.0703125 C213.61435742 133.40094151 212.85333152 136.70349907 212 140 C212.69738281 140.05671875 213.39476562 140.1134375 214.11328125 140.171875 C217.97022024 141.27833111 220.34096003 143.55475943 223.1875 146.25 C223.72052734 146.72824219 224.25355469 147.20648438 224.80273438 147.69921875 C227.87356714 150.5498786 229.89592735 152.93128783 231 157 C230.85938681 163.89004619 227.77447849 169.79822456 225 176 C224.46795711 177.29134028 223.93674706 178.58302391 223.40625 179.875 C219.86896311 188.12740598 215.70631959 195.60778378 210.60546875 202.98828125 C210.12389313 203.69143463 209.6423175 204.39458801 209.14614868 205.11904907 C206.69802684 208.68519165 204.21307598 212.21417058 201.66015625 215.70605469 C196.74568358 222.1865139 196.74568358 222.1865139 195.10693359 229.85083008 C196.12704604 232.52622423 197.38692305 234.63827373 199 237 C199.86874274 238.62131734 200.72817939 240.24765633 201.578125 241.87890625 C202.46257858 243.44360868 203.35320415 245.0048386 204.25 246.5625 C205.15277005 248.14615139 206.05390855 249.73073438 206.953125 251.31640625 C207.54335449 252.34423218 207.54335449 252.34423218 208.14550781 253.39282227 C209 255 209 255 209 256 C162.14 256 115.28 256 67 256 C52.52514919 223.43158568 52.52514919 223.43158568 46.125 208.125 C45.75102081 207.23263641 45.37704163 206.34027283 44.99172974 205.42086792 C39.40118685 192.05759997 34.05038261 178.61565373 28.9375 165.0625 C28.63773254 164.26837708 28.33796509 163.47425415 28.02911377 162.65606689 C27.19115011 160.42974729 26.35776963 158.20179732 25.52734375 155.97265625 C25.16150932 154.99449196 25.16150932 154.99449196 24.7882843 153.99656677 C23.69126967 151.02620128 22.6770052 148.09605446 22 145 C17.35413108 145.48484276 17.35413108 145.48484276 13 147 C11.29297265 147.06996014 9.58331997 147.08440154 7.875 147.0625 C6.96492187 147.05347656 6.05484375 147.04445312 5.1171875 147.03515625 C4.41851562 147.02355469 3.71984375 147.01195312 3 147 C2.67 146.01 2.34 145.02 2 144 C1.34 144 0.68 144 0 144 C-1.326893 123.42550333 -1.326893 123.42550333 1.81640625 117.6796875 C4.0625 115.4375 4.0625 115.4375 6.34765625 113.74609375 C6.89292969 113.16988281 7.43820313 112.59367187 8 112 C7.7001184 107.25667721 6.27283175 104.73102626 3.48022461 100.98339844 C-1.89999664 92.0255591 -0.87123147 82.41565334 -0.68359375 72.265625 C-0.67051559 70.17528959 -0.66056192 68.08493253 -0.65357971 65.99456787 C-0.62702881 60.52949338 -0.55841951 55.06574988 -0.48065186 49.60119629 C-0.4086611 44.01035561 -0.37699201 38.41929695 -0.34179688 32.828125 C-0.2670343 21.88474191 -0.14404942 10.94269058 0 0 Z " fill="#060404" transform="translate(0,0)"/>
<path d="M0 0 C3.73055877 3.00648407 6.18730057 6.34873083 8.7265625 10.4296875 C9.22075684 10.89165527 9.71495117 11.35362305 10.22412109 11.82958984 C12.01605734 13.73799904 12.65213584 15.37949663 13.515625 17.84375 C13.81726563 18.68679687 14.11890625 19.52984375 14.4296875 20.3984375 C14.73390625 21.275 15.038125 22.1515625 15.3515625 23.0546875 C15.96644134 24.79769115 16.58351195 26.53992368 17.203125 28.28125 C17.47205566 29.05291504 17.74098633 29.82458008 18.01806641 30.61962891 C18.58339796 32.42009818 18.58339796 32.42009818 19.7265625 33.4296875 C23.24125035 47.15492839 23.03241292 61.98033799 18.7265625 75.4296875 C18.34498769 76.74141417 17.96626125 78.05397158 17.58984375 79.3671875 C15.53518116 86.3927018 13.29907308 92.97564936 9.7421875 99.4140625 C8.73035732 101.42215624 8.23440801 103.24947379 7.7265625 105.4296875 C6.75356201 105.54940918 5.78056152 105.66913086 4.77807617 105.79248047 C-2.18662 106.65401904 -9.14570913 107.54056239 -16.09765625 108.5 C-43.12434651 112.17190206 -74.83840944 115.21197664 -100.2734375 102.4296875 C-106.43270863 96.46872624 -110.15091538 89.30860959 -113.2734375 81.4296875 C-113.63824219 80.69363281 -114.00304687 79.95757812 -114.37890625 79.19921875 C-120.11550103 61.4383205 -112.98315475 38.07875364 -105.14453125 21.9453125 C-97.77379872 8.09633698 -85.40980856 -5.17918225 -70.34765625 -10.62890625 C-67.66206432 -11.3884309 -65.0122611 -12.0365088 -62.2734375 -12.5703125 C-61.37625 -12.75078125 -60.4790625 -12.93125 -59.5546875 -13.1171875 C-38.71170561 -15.99550405 -17.45411045 -12.05593196 0 0 Z " fill="#4C4C4C" transform="translate(188.2734375,64.5703125)"/>
<path d="M0 0 C3.39789769 1.12541834 6.78836131 2.26971144 10.171875 3.4375 C22.39393208 7.63194211 32.76019758 10.29875247 45.77734375 9.875 C49.01504076 9.86526783 51.96195756 10.32792831 55.1328125 10.97265625 C61.7416186 12.25258456 68.21799647 12.42506521 74.9375 12.4375 C75.93388992 12.44059677 75.93388992 12.44059677 76.95040894 12.4437561 C90.07679697 12.43663235 103.03222118 11.18924694 116.0625 9.6875 C117.46143997 9.52760086 117.46143997 9.52760086 118.88864136 9.36447144 C140.05190958 7.17302745 140.05190958 7.17302745 160.14453125 0.671875 C160.75683594 0.45015625 161.36914062 0.2284375 162 0 C162.99 0.495 162.99 0.495 164 1 C157.99248538 15.13078631 150.57512676 27.78420895 141.95385742 40.43237305 C137.80742748 46.53970609 133.91816248 52.69287211 130.4140625 59.1953125 C129.89590469 60.14880081 129.89590469 60.14880081 129.36727905 61.12155151 C127.87595053 63.9578491 127 65.74690099 127 69 C128.32 67.02 129.64 65.04 131 63 C133.16372228 65.71225533 134.70337668 68.27978567 136.04296875 71.4765625 C136.39423828 72.311875 136.74550781 73.1471875 137.10742188 74.0078125 C137.46384766 74.87148437 137.82027344 75.73515625 138.1875 76.625 C138.55552734 77.49640625 138.92355469 78.3678125 139.30273438 79.265625 C142 85.73105577 142 85.73105577 142 88 C130.60436606 88.39526727 119.21038068 88.6966114 107.80926895 88.88080692 C102.5137624 88.96925624 97.22296876 89.08900073 91.93017578 89.2824707 C86.81389598 89.46830082 81.70212097 89.56903806 76.58272552 89.61291313 C74.63816103 89.6441382 72.69382249 89.70513164 70.75119781 89.79741096 C55.95771641 90.47166976 55.95771641 90.47166976 51.01241112 86.33903503 C47.38399641 82.2853047 44.64972274 77.79600409 42.09173107 73.01238251 C40.66580367 70.38397755 39.00621548 67.9459008 37.30078125 65.4921875 C36.30034386 63.95594495 35.30412687 62.41694432 34.3125 60.875 C33.77197998 60.03791504 33.23145996 59.20083008 32.67456055 58.33837891 C22.27270272 42.15221654 12.90903505 25.41960981 3.875 8.4375 C3.48441406 7.7048291 3.09382813 6.9721582 2.69140625 6.21728516 C0 1.12196378 0 1.12196378 0 0 Z " fill="#B62809" transform="translate(59,168)"/>
<path d="M0 0 C3.73055877 3.00648407 6.18730057 6.34873083 8.7265625 10.4296875 C9.22075684 10.89165527 9.71495117 11.35362305 10.22412109 11.82958984 C12.01605734 13.73799904 12.65213584 15.37949663 13.515625 17.84375 C13.81726563 18.68679687 14.11890625 19.52984375 14.4296875 20.3984375 C14.73390625 21.275 15.038125 22.1515625 15.3515625 23.0546875 C15.96644134 24.79769115 16.58351195 26.53992368 17.203125 28.28125 C17.47205566 29.05291504 17.74098633 29.82458008 18.01806641 30.61962891 C18.58339796 32.42009818 18.58339796 32.42009818 19.7265625 33.4296875 C21.51872144 40.42826438 21.93419364 47.49110415 21.9765625 54.6796875 C21.9856665 55.423396 21.99477051 56.16710449 22.00415039 56.93334961 C21.93800656 69.09436587 21.93800656 69.09436587 17.84375 73.41796875 C15.49113998 74.80740219 13.15342366 76.17319971 10.7265625 77.4296875 C10.07171875 77.77128906 9.416875 78.11289063 8.7421875 78.46484375 C3.19183416 80.93039327 -2.29350267 80.72648574 -8.2734375 80.4296875 C-8.3003876 77.49212631 -8.32025224 74.55481195 -8.3359375 71.6171875 C-8.34431641 70.78380859 -8.35269531 69.95042969 -8.36132812 69.09179688 C-8.36455078 68.28935547 -8.36777344 67.48691406 -8.37109375 66.66015625 C-8.37633057 65.92176514 -8.38156738 65.18337402 -8.38696289 64.42260742 C-8.2734375 62.4296875 -8.2734375 62.4296875 -7.2734375 59.4296875 C-6.21405772 47.99715319 -6.37655016 36.69058942 -12.97265625 26.91015625 C-18.78204594 20.6470621 -27.70908696 16.53740993 -36.19921875 15.8125 C-47.22613815 15.42077417 -57.66219382 16.43842755 -66.4609375 23.640625 C-77.34032951 34.37933522 -80.42683797 49.22951136 -80.5234375 63.9296875 C-80.50505634 70.67032027 -79.99176276 76.87857245 -78.2734375 83.4296875 C-90.29425108 82.80157292 -103.4414228 81.05241269 -114.2734375 75.4296875 C-119.79161387 58.87515838 -112.41905664 36.92546059 -105.14453125 21.9453125 C-97.77379872 8.09633698 -85.40980856 -5.17918225 -70.34765625 -10.62890625 C-67.66206432 -11.3884309 -65.0122611 -12.0365088 -62.2734375 -12.5703125 C-61.37625 -12.75078125 -60.4790625 -12.93125 -59.5546875 -13.1171875 C-38.71170561 -15.99550405 -17.45411045 -12.05593196 0 0 Z " fill="#8B8B8B" transform="translate(188.2734375,64.5703125)"/>
<path d="M0 0 C5.25408347 3.93409206 7.84311223 6.29328078 9.0859375 12.78125 C10.29457966 22.12808268 9.63061614 30.63178226 6.4375 39.5 C6.19386719 40.19609375 5.95023438 40.8921875 5.69921875 41.609375 C2.8235416 48.42377583 -3.0549589 55.10753588 -9.59375 58.578125 C-11.375 59.125 -11.375 59.125 -14.5625 59.5 C-15.34238281 59.68046875 -16.12226563 59.8609375 -16.92578125 60.046875 C-19.5625 59.5 -19.5625 59.5 -20.88110352 57.97216797 C-22.32719428 55.73413875 -23.64318906 53.45411894 -24.9375 51.125 C-25.91150504 49.44643007 -26.88804949 47.76933097 -27.8671875 46.09375 C-28.33350586 45.28808594 -28.79982422 44.48242188 -29.28027344 43.65234375 C-30.74140497 41.19969036 -32.35003942 38.90828077 -34.0625 36.625 C-39.33606453 29.35777084 -43.32562327 21.19443128 -47.55029297 13.29077148 C-48.43605694 11.53723277 -48.43605694 11.53723277 -49.5625 10.5 C-49.63897989 6.67600544 -49.44675518 4.57782348 -46.9921875 1.5859375 C-34.23199091 -10.17345936 -14.06452068 -9.61346572 0 0 Z " fill="#9A3B2D" transform="translate(168.5625,91.5)"/>
<path d="M0 0 C6.18136086 8.05559273 9.75263343 18.12026678 13.73339844 27.36083984 C17.67962387 36.45062669 22.1458686 45.15124964 26.86083984 53.859375 C28.65072761 57.22279891 30.32153425 60.64254143 32 64.0625 C42.43256989 85.08737542 54.95127916 104.56365347 68.59472656 123.64208984 C69.15643555 124.43180176 69.71814453 125.22151367 70.296875 126.03515625 C70.79541992 126.7300415 71.29396484 127.42492676 71.80761719 128.14086914 C73 130 73 130 74 133 C69.45969019 133.29110292 64.92177372 133.4682147 60.375 133.625 C59.08980469 133.70878906 57.80460937 133.79257812 56.48046875 133.87890625 C47.23229711 134.11849619 47.23229711 134.11849619 43.98022461 131.16674805 C42.3532853 128.51854557 41.1751469 125.87646488 40 123 C38.99454654 121.01761189 37.97988415 119.03987306 36.95703125 117.06640625 C35.90114535 114.90218152 34.85329611 112.73402185 33.8125 110.5625 C33.25151611 109.39307861 32.69053223 108.22365723 32.11254883 107.01879883 C23.9724884 89.90219606 16.8427382 72.29692102 10.8112793 54.3269043 C9.28736502 49.93038357 7.54852902 46.10027762 5.06640625 42.15625 C1.58480371 36.58514152 -0.56903372 30.73683835 -2.75 24.5625 C-3.51226403 22.43759341 -4.27774345 20.31383673 -5.046875 18.19140625 C-5.37526367 17.26529541 -5.70365234 16.33918457 -6.04199219 15.38500977 C-6.98636751 12.79880425 -6.98636751 12.79880425 -9 10 C-9 7.20820044 -8.58382241 5.62467296 -6.66015625 3.56640625 C-2.5279745 0 -2.5279745 0 0 0 Z " fill="#8D8D8D" transform="translate(33,123)"/>
<path d="M0 0 C6.03943635 4.63826496 9.04116562 10.91741487 10.59741211 18.22680664 C12.26400399 32.67169647 9.86452197 45.30342148 1.25366211 57.29711914 C-5.38322483 65.02971855 -14.22723338 69.10263086 -24.21508789 70.28930664 C-36.20960514 70.80519986 -45.50230662 64.76751739 -54.40258789 57.22680664 C-60.87177429 51.24251356 -64.17792827 45.29993446 -64.57055664 36.43383789 C-64.39440079 24.88285533 -60.30023433 11.76071369 -52.51977539 3.14086914 C-37.92214923 -10.42633635 -16.3497683 -10.52529366 0 0 Z M-50.09008789 6.37133789 C-52.21036235 9.3687497 -52.37640317 11.56842687 -52.40258789 15.22680664 C-51.24291417 18.23556061 -49.58959605 20.83999517 -47.84008789 23.53930664 C-47.40889648 24.23475586 -46.97770508 24.93020508 -46.53344727 25.64672852 C-45.63802627 27.08971863 -44.73486013 28.52792637 -43.82470703 29.96166992 C-42.34131126 32.32440743 -40.91207453 34.71430646 -39.48852539 37.11352539 C-36.32465449 42.40842698 -32.97455228 47.57099771 -29.59008789 52.72680664 C-28.43680677 54.48660936 -27.28441652 56.24699634 -26.13305664 58.00805664 C-25.63185303 58.77182617 -25.13064941 59.5355957 -24.61425781 60.32250977 C-23.40258789 62.22680664 -23.40258789 62.22680664 -22.40258789 64.22680664 C-12.22057961 63.19134817 -7.06983962 60.16458729 -0.40258789 52.22680664 C6.86791048 41.01447181 7.96801911 28.40151736 6.09741211 15.35180664 C4.51749036 9.28802246 -0.31739081 6.16641974 -5.39086914 2.97680664 C-20.12003103 -5.05191487 -37.06843581 -3.9073273 -50.09008789 6.37133789 Z " fill="#070404" transform="translate(171.402587890625,86.773193359375)"/>
<path d="M0 0 C20.56006583 -1.79426914 20.56006583 -1.79426914 25.8046875 2.0625 C27.52775984 4.96451658 28.74349781 7.87037881 30 11 C31.34272592 12.9542387 32.73957023 14.87237885 34.1875 16.75 C35.46176967 18.49749941 36.7330209 20.24720756 38 22 C38.43699219 22.60199219 38.87398437 23.20398438 39.32421875 23.82421875 C43.76832433 30.64732509 44 39.11009963 44 47 C36.08 47.66 28.16 48.32 20 49 C19.6596875 45.1946875 19.6596875 45.1946875 19.3125 41.3125 C18.12782682 30.4648148 15.54712227 20.91836067 7.78125 12.9140625 C0 4.55263158 0 4.55263158 0 0 Z " fill="#3D3A3A" transform="translate(107,0)"/>
<path d="M0 0 C0.28520508 0.58249512 0.57041016 1.16499023 0.86425781 1.76513672 C1.9036635 3.8104333 3.00639239 5.78237526 4.171875 7.7578125 C4.58953125 8.46679688 5.0071875 9.17578125 5.4375 9.90625 C5.870625 10.6384375 6.30375 11.370625 6.75 12.125 C7.16765625 12.83398438 7.5853125 13.54296875 8.015625 14.2734375 C9.33976112 16.5180097 10.66958185 18.75914639 12 21 C12.47002441 21.79696289 12.94004883 22.59392578 13.42431641 23.41503906 C17.62417612 30.49039066 22.1177121 37.35207994 26.671875 44.203125 C27.23132813 45.05390625 27.79078125 45.9046875 28.3671875 46.78125 C28.87362793 47.54501953 29.38006836 48.30878906 29.90185547 49.09570312 C31 51 31 51 31 53 C15.22691229 52.1303811 5.88132793 47.64531312 -4.81640625 36.02734375 C-8.54027188 29.64884124 -7.10395335 20.96226578 -6 14 C-4.40211557 9.119387 -2.29225401 4.58450802 0 0 Z " fill="#5C0E08" transform="translate(118,98)"/>
<path d="M0 0 C5.28 0 10.56 0 16 0 C15.45730469 1.08796875 14.91460937 2.1759375 14.35546875 3.296875 C8.29201314 15.65667034 1.3329565 29.99886949 6 44 C6.13096042 46.16521235 6.23003691 48.3323988 6.3125 50.5 C6.91543441 61.68270067 8.90273749 73.21957404 13.125 83.625 C15.98840388 90.73841674 16.32529552 98.42733 17 106 C15.02 106.99 15.02 106.99 13 108 C11.6968315 105.67248045 10.40758538 103.33883216 9.125 101 C8.76019531 100.35160156 8.39539062 99.70320313 8.01953125 99.03515625 C4.25021315 92.11331755 2.94297903 85.41535014 1.9375 77.625 C1.46835177 73.16124908 1.46835177 73.16124908 0 69 C-0.09188942 66.81459189 -0.11750236 64.62630031 -0.11352539 62.43896484 C-0.11367142 61.76567642 -0.11381744 61.092388 -0.1139679 60.3986969 C-0.11327027 58.16941119 -0.10548489 55.94020865 -0.09765625 53.7109375 C-0.09579154 52.16679937 -0.09436789 50.62266066 -0.09336853 49.07852173 C-0.08954754 45.01129528 -0.07972082 40.94410445 -0.06866455 36.87689209 C-0.05844144 32.7278288 -0.05386898 28.57875975 -0.04882812 24.4296875 C-0.03809819 16.28644015 -0.02050476 8.14322861 0 0 Z " fill="#3E3B3B" transform="translate(0,0)"/>
<path d="M0 0 C2.83709782 3.36590599 4.28770737 6.84914897 5.875 10.9375 C6.134021 11.5962915 6.39304199 12.25508301 6.65991211 12.93383789 C7.91652647 16.14176459 9.13295752 19.36082868 10.32421875 22.59375 C10.73285156 23.6971875 11.14148437 24.800625 11.5625 25.9375 C11.91441406 26.91589844 12.26632813 27.89429688 12.62890625 28.90234375 C13.72702217 31.38327231 14.77517405 33.18366049 16.28515625 35.3828125 C19.90693129 41.02802994 21.86219042 47.38934727 24.07556152 53.67681885 C32.43030945 77.30267841 42.39557041 100.41091841 54.55859375 122.34375 C56 125 56 125 56 126 C53.03 126 50.06 126 47 126 C46.78085938 125.35603271 46.56171875 124.71206543 46.3359375 124.04858398 C39.06778475 102.85165172 30.67593895 82.19099649 22.04980469 61.51751709 C20.64679665 58.15298961 19.24802163 54.78670925 17.84919739 51.42044067 C15.26131091 45.1930734 12.67026935 38.96703541 10.07106018 32.74438477 C9.50333232 31.38516657 8.93596885 30.02579611 8.3690033 28.66625977 C7.09291572 25.60765238 5.8099794 22.55249587 4.51464844 19.50195312 C3.8441748 17.91737305 3.8441748 17.91737305 3.16015625 16.30078125 C2.77351807 15.39368408 2.38687988 14.48658691 1.98852539 13.55200195 C0.50701413 9.7272953 -0.34690056 6.04921656 -1 2 C-0.67 1.34 -0.34 0.68 0 0 Z " fill="#4D4D4D" transform="translate(23,130)"/>
<path d="M0 0 C15.62104307 0.63759359 31.97974469 5.31551012 43 17 C44.38617389 18.96374635 45.73012031 20.95912192 47 23 C47.49419434 23.46196777 47.98838867 23.92393555 48.49755859 24.39990234 C50.28949484 26.30831154 50.92557334 27.94980913 51.7890625 30.4140625 C52.09070313 31.25710937 52.39234375 32.10015625 52.703125 32.96875 C53.00734375 33.8453125 53.3115625 34.721875 53.625 35.625 C54.23987884 37.36800365 54.85694945 39.11023618 55.4765625 40.8515625 C55.74549316 41.62322754 56.01442383 42.39489258 56.29150391 43.18994141 C56.85683546 44.99041068 56.85683546 44.99041068 58 46 C59.36433656 52.31379109 60.29359411 58.54092963 60 65 C57.34106257 61.82766543 56.05194884 58.76672692 54.6875 54.875 C52.81351544 49.87770784 50.73104475 45.49294619 47.859375 41.0078125 C46.30389689 38.49159791 44.86760664 35.96316515 43.453125 33.3671875 C42.9885791 32.52752441 42.5240332 31.68786133 42.04541016 30.82275391 C41.12042774 29.14735606 40.20794243 27.46497779 39.31005859 25.77490234 C33.7914762 15.9077336 25.51334574 11.48333744 15 8 C12.74373597 7.20506046 10.49369461 6.39225342 8.25 5.5625 C7.12078125 5.15128906 5.9915625 4.74007812 4.828125 4.31640625 C2 3 2 3 0 0 Z " fill="#F7F7F7" transform="translate(150,52)"/>
<path d="M0 0 C0.55253221 7.35174806 -0.48935892 12.511583 -4 19 C-4.99 19 -5.98 19 -7 19 C-8.2109375 17.25 -8.2109375 17.25 -9.375 15 C-11.184263 11.73977678 -11.184263 11.73977678 -14.4375 10.1875 C-18.16640749 11.36983652 -20.16586501 13.29468932 -23 16 C-24.44207941 18.88415883 -24.09394887 21.41721528 -24.0625 24.625 C-24.041875 26.72875 -24.02125 28.8325 -24 31 C-28.62 31.33 -33.24 31.66 -38 32 C-34.78930629 19.15722518 -24.40967379 10.16376227 -13.61328125 3.4453125 C-8.86727573 0.8204664 -5.45685476 -0.2538072 0 0 Z " fill="#838383" transform="translate(45,110)"/>
<path d="M0 0 C2.7890625 -0.30078125 2.7890625 -0.30078125 6 0 C7.8359375 2.01953125 7.8359375 2.01953125 9.375 4.8125 C11.79311614 8.9785227 14.30215384 12.89038112 17.1875 16.75 C18.46176967 18.49749941 19.7330209 20.24720756 21 22 C21.43699219 22.60199219 21.87398437 23.20398438 22.32421875 23.82421875 C26.71921243 30.5719228 27.13978903 39.16016544 27 47 C24.66705225 47.04241723 22.33297433 47.04092937 20 47 C18.37971266 45.37971266 18.52530264 43.35386602 18.1875 41.125 C16.24714559 30.35603303 12.12292342 22.23867781 6.12890625 13.25390625 C0 3.88623853 0 3.88623853 0 0 Z " fill="#787272" transform="translate(124,0)"/>
<path d="M0 0 C1.68762851 1.6454378 3.3540349 3.31288577 5 5 C5 5.33 5 5.66 5 6 C3.7625 6.185625 2.525 6.37125 1.25 6.5625 C-11.57847627 9.51365182 -22.29618198 19.0414676 -29.828125 29.55078125 C-30.93316857 31.33853852 -31.97632221 33.16443983 -33 35 C-33.33 35 -33.66 35 -34 35 C-34.61544457 29.4609989 -34.58562307 26.07941472 -31.25 21.5 C-23.1994797 12.18091287 -11.51489626 4.36631869 0 0 Z " fill="#838383" transform="translate(38,99)"/>
<path d="M0 0 C2.16372228 2.71225533 3.70337668 5.27978567 5.04296875 8.4765625 C5.56987305 9.72953125 5.56987305 9.72953125 6.10742188 11.0078125 C6.64206055 12.30332031 6.64206055 12.30332031 7.1875 13.625 C7.55552734 14.49640625 7.92355469 15.3678125 8.30273438 16.265625 C11 22.73105577 11 22.73105577 11 25 C9.171875 24.921875 9.171875 24.921875 7 24 C5.515625 21.015625 5.515625 21.015625 4.25 17.25 C3.82203125 16.01765625 3.3940625 14.7853125 2.953125 13.515625 C2.12150941 10.44819045 1.78415362 8.14176401 2 5 C1.34 5 0.68 5 0 5 C-0.309375 6.2684375 -0.309375 6.2684375 -0.625 7.5625 C-2.59819395 12.49548488 -5.27614648 16.51235692 -10.03125 19.109375 C-13.63111883 20.53320372 -16.04960408 21 -20 21 C-19.125 16.25 -19.125 16.25 -18 14 C-17.195625 13.87625 -16.39125 13.7525 -15.5625 13.625 C-14.716875 13.41875 -13.87125 13.2125 -13 13 C-12.28758439 11.69053972 -11.62845236 10.35176546 -11 9 C-9.98739559 7.56241654 -8.94487352 6.1454872 -7.875 4.75 C-7.33617187 4.04359375 -6.79734375 3.3371875 -6.2421875 2.609375 C-5.83226562 2.07828125 -5.42234375 1.5471875 -5 1 C-4 3 -4 3 -4 6 C-2.68 4.02 -1.36 2.04 0 0 Z " fill="#860800" transform="translate(190,231)"/>
<path d="M0 0 C4.02011351 1.48115129 5.09697344 3.49563639 6.91796875 7.28515625 C7.71001709 8.90574951 7.71001709 8.90574951 8.51806641 10.55908203 C9.06897949 11.71520996 9.61989258 12.87133789 10.1875 14.0625 C11.34332437 16.43703967 12.50088066 18.81073709 13.66015625 21.18359375 C14.22621582 22.34745605 14.79227539 23.51131836 15.37548828 24.71044922 C17.85560881 29.73256284 20.49508022 34.66424533 23.19604492 39.57055664 C25.56244631 43.93622898 27.48056253 48.26293024 29 53 C28.67 53.99 28.34 54.98 28 56 C22.98572176 49.98286611 19.61600466 43.50212252 16.21875 36.50390625 C13.85279284 31.64401516 11.2996722 26.89024618 8.75 22.125 C0 5.650828 0 5.650828 0 0 Z " fill="#FB6E54" transform="translate(137,85)"/>
<path d="M0 0 C3.26964407 2.96598383 5.13647012 5.78957026 7.0625 9.75 C7.34778564 10.33346191 7.63307129 10.91692383 7.92700195 11.51806641 C11.43949061 18.77654076 14.76143828 26.12849089 18.09204102 33.47167969 C18.53990967 34.45813477 18.98777832 35.44458984 19.44921875 36.4609375 C19.8776709 37.40549805 20.30612305 38.35005859 20.74755859 39.32324219 C21.90073074 41.78783856 23.12950734 44.19307853 24.39453125 46.6015625 C25.18923828 48.28378906 25.18923828 48.28378906 26 50 C25.67 50.66 25.34 51.32 25 52 C20.00397655 46.12321861 16.22939486 40.03003704 12.69140625 33.18359375 C11.20548491 30.38676721 9.60018494 27.77675486 7.875 25.125 C3.50271125 17.9671402 -0.5475567 8.4549197 0 0 Z " fill="#F5F5F5" transform="translate(32,124)"/>
<path d="M0 0 C9.357045 1.17621391 9.357045 1.17621391 12 4.5625 C12.33 5.366875 12.66 6.17125 13 7 C13.66 7.33 14.32 7.66 15 8 C16.58470855 13.19432248 17.28533749 18.57858775 17 24 C14.99006295 20.98509443 14.27376659 18.7850073 13.375 15.3125 C13.11460938 14.31863281 12.85421875 13.32476562 12.5859375 12.30078125 C12.39257812 11.54152344 12.19921875 10.78226563 12 10 C11.67 10.33 11.34 10.66 11 11 C11.28875 11.78503906 11.5775 12.57007813 11.875 13.37890625 C13.90112658 19.11256306 15.5541439 23.90441707 15 30 C12.74665902 27.93125475 11.39655137 26.08628242 10.125 23.3125 C8.7250539 20.38387712 7.20242756 17.66174255 5.4375 14.9375 C2.34644862 10.08149644 0 5.89422657 0 0 Z " fill="#B22609" transform="translate(70,173)"/>
<path d="M0 0 C0.66 0 1.32 0 2 0 C2.57105469 1.06734375 3.14210938 2.1346875 3.73046875 3.234375 C12.88369135 20.1382483 23.41844664 36.01363912 34.59472656 51.64208984 C35.15643555 52.43180176 35.71814453 53.22151367 36.296875 54.03515625 C36.79541992 54.7300415 37.29396484 55.42492676 37.80761719 56.14086914 C39 58 39 58 40 61 C36 61 36 61 34.5078125 59.56640625 C34.05148438 58.90511719 33.59515625 58.24382812 33.125 57.5625 C32.61195312 56.82644531 32.09890625 56.09039062 31.5703125 55.33203125 C30.79300781 54.17767578 30.79300781 54.17767578 30 53 C29.50242187 52.30261719 29.00484375 51.60523438 28.4921875 50.88671875 C18 35.86256545 18 35.86256545 18 30 C17.01 29.67 16.02 29.34 15 29 C13.4436356 26.92188296 12.05293081 24.88567289 10.6875 22.6875 C10.29377197 22.06319092 9.90004395 21.43888184 9.49438477 20.7956543 C0 5.5059203 0 5.5059203 0 0 Z " fill="#F1F1F1" transform="translate(67,195)"/>
<path d="M0 0 C1.2065625 0.0309375 1.2065625 0.0309375 2.4375 0.0625 C2.1075 0.7225 1.7775 1.3825 1.4375 2.0625 C2.12779297 2.56910156 2.12779297 2.56910156 2.83203125 3.0859375 C5.16855859 5.96253806 5.52867281 9.12588579 6.125 12.6875 C6.25092529 13.40373535 6.37685059 14.1199707 6.5065918 14.85791016 C7.36513884 19.99524177 7.88686421 24.84987513 7.4375 30.0625 C6.7775 30.7225 6.1175 31.3825 5.4375 32.0625 C0.65641331 28.43582099 -0.03015451 23.81086298 -1.3125 18.25 C-1.53292969 17.37279297 -1.75335938 16.49558594 -1.98046875 15.59179688 C-3.17376656 10.63701684 -3.91633781 6.15912536 -3.5625 1.0625 C-2.5625 0.0625 -2.5625 0.0625 0 0 Z " fill="#860800" transform="translate(106.5625,177.9375)"/>
<path d="M0 0 C4.8933334 1.4828283 8.73370417 4.09391427 12 8 C16.06837409 16.85049802 14.82971547 28.98028193 12 38 C11.01 37.67 10.02 37.34 9 37 C9.03480469 36.28457031 9.06960937 35.56914063 9.10546875 34.83203125 C9.41789759 23.33167447 7.69372872 13.56902251 1.20703125 3.92578125 C0 2 0 2 0 0 Z " fill="#F36E53" transform="translate(164,90)"/>
<path d="M0 0 C0.33 0.99 0.66 1.98 1 3 C0.52949219 3.58265625 0.05898438 4.1653125 -0.42578125 4.765625 C-2.59226039 7.84062765 -2.29897154 10.03428216 -2.1875 13.75 C-2.125625 15.8125 -2.06375 17.875 -2 20 C-6.62 20.33 -11.24 20.66 -16 21 C-13.81058 12.24232 -7.86253878 6.50313372 -1 1 C-0.67 0.67 -0.34 0.34 0 0 Z " fill="#838383" transform="translate(23,121)"/>
<path d="M0 0 C1.65 0 3.3 0 5 0 C5.0270491 3.06255961 5.04686298 6.1248786 5.0625 9.1875 C5.07087891 10.05181641 5.07925781 10.91613281 5.08789062 11.80664062 C5.10413707 16.04696393 4.90503429 19.84748975 4 24 C3.73761876 26.93350231 3.58788366 29.87139002 3.4375 32.8125 C3.39431641 33.60076172 3.35113281 34.38902344 3.30664062 35.20117188 C3.20121679 37.13394215 3.10016906 39.06695026 3 41 C2.01 41 1.02 41 0 41 C-0.91657981 35.61509359 -1.11138159 30.45769811 -1 25 C-0.34 25.33 0.32 25.66 1 26 C0.690625 25.484375 0.38125 24.96875 0.0625 24.4375 C-1.29059287 21.33334577 -1.61359424 18.34884993 -2 15 C-1.34 15.66 -0.68 16.32 0 17 C0 15.35 0 13.7 0 12 C0.66 12.33 1.32 12.66 2 13 C2.66 9.04 3.32 5.08 4 1 C2.68 0.67 1.36 0.34 0 0 Z " fill="#8D0D02" transform="translate(152,180)"/>
<path d="M0 0 C3.3 0 6.6 0 10 0 C9.51226174 6.24304979 8.60694683 11.28477041 6 17 C5.01 17.66 4.02 18.32 3 19 C2.34 19.99 1.68 20.98 1 22 C1 21.01 1 20.02 1 19 C0.34 19 -0.32 19 -1 19 C-0.54678672 16.93636888 -0.08720894 14.87413493 0.375 12.8125 C0.63023437 11.66394531 0.88546875 10.51539063 1.1484375 9.33203125 C1.89472452 6.41192652 2.80431788 3.76046611 4 1 C2.68 0.67 1.36 0.34 0 0 Z " fill="#8F0D02" transform="translate(186,176)"/>
<path d="M0 0 C1.36057812 0.90705208 2.72053795 1.81503977 4.078125 2.7265625 C5.47508773 3.65219228 6.88287166 4.56155442 8.296875 5.4609375 C9.08578125 5.96882812 9.8746875 6.47671875 10.6875 7 C11.43386719 7.474375 12.18023437 7.94875 12.94921875 8.4375 C16.16056005 10.88423623 17.72704995 13.18114986 19 17 C10.30386662 17 5.6003908 13.41602161 -1 8 C-0.67 7.01 -0.34 6.02 0 5 C2.58789062 6.51367188 2.58789062 6.51367188 5.17578125 8.02734375 C7.13819555 9.13901247 7.13819555 9.13901247 10 10 C9.278125 9.52949219 8.55625 9.05898437 7.8125 8.57421875 C6.4203125 7.64029297 6.4203125 7.64029297 5 6.6875 C3.6078125 5.76517578 3.6078125 5.76517578 2.1875 4.82421875 C1.465625 4.22222656 0.74375 3.62023437 0 3 C0 2.01 0 1.02 0 0 Z " fill="#8E0C01" transform="translate(111,234)"/>
<path d="M0 0 C3.07159736 4.60739605 4.61473539 9.77592513 6.47827148 14.96948242 C7.18515146 16.9309831 7.9077024 18.88624862 8.63085938 20.84179688 C9.07623047 22.07865234 9.52160156 23.31550781 9.98046875 24.58984375 C10.59764771 26.28935181 10.59764771 26.28935181 11.22729492 28.02319336 C11.98269437 30.93333094 12.07755499 32.24792876 11 35 C2.43762872 23.91634739 0.73384722 13.74997955 0 0 Z " fill="#736D6D" transform="translate(2,71)"/>
<path d="M0 0 C2.93814003 1.46907001 3.3286226 3.59447806 4.625 6.5625 C5.07101563 7.57441406 5.51703125 8.58632812 5.9765625 9.62890625 C6.31429687 10.41136719 6.65203125 11.19382813 7 12 C6.67 9.69 6.34 7.38 6 5 C7.828125 5.55078125 7.828125 5.55078125 10 7 C11.11993965 9.43734235 11.96927765 11.6464697 12.75 14.1875 C12.97042969 14.83525391 13.19085938 15.48300781 13.41796875 16.15039062 C14.8279914 20.5337219 15.21701105 24.35234662 15 29 C12.74665902 26.93125475 11.39655137 25.08628242 10.125 22.3125 C8.7250539 19.38387712 7.20242756 16.66174255 5.4375 13.9375 C2.66083179 9.58395849 0 5.28223036 0 0 Z " fill="#A41504" transform="translate(70,174)"/>
<path d="M0 0 C0.90242256 2.43654091 1.06028682 3.77160569 0.390625 6.30859375 C-1.40290407 9.77977781 -3.9021034 11.94392628 -6.875 14.375 C-7.40480469 14.83777344 -7.93460938 15.30054688 -8.48046875 15.77734375 C-12.41913465 19.05142087 -12.41913465 19.05142087 -15.3828125 18.7890625 C-15.91648438 18.52867187 -16.45015625 18.26828125 -17 18 C-15.47589059 14.24507123 -13.22731235 12.19214276 -10.1875 9.5625 C-6.6650456 6.47334317 -3.25714702 3.36571859 0 0 Z " fill="#8C0A01" transform="translate(187,221)"/>
<path d="M0 0 C2.75508074 1.21223553 5.20921437 2.74451475 7.6875 4.4375 C8.28949219 4.84871094 8.89148438 5.25992188 9.51171875 5.68359375 C11 7 11 7 12 10 C11.67 10.33 11.34 10.66 11 11 C12.2065625 11.433125 12.2065625 11.433125 13.4375 11.875 C16 13 16 13 17 15 C14.03 14.505 14.03 14.505 11 14 C12.22880216 15.2941742 12.22880216 15.2941742 15 17 C15.51171875 19.1640625 15.51171875 19.1640625 15.6875 21.625 C15.75324219 22.44226563 15.81898437 23.25953125 15.88671875 24.1015625 C15.92410156 24.72804687 15.96148437 25.35453125 16 26 C12.60945322 22.05325116 10.19848551 17.95895716 7.8125 13.375 C7.45736328 12.70726562 7.10222656 12.03953125 6.73632812 11.3515625 C5.28417666 8.59605687 3.98666453 5.95999358 3 3 C2.01 2.67 1.02 2.34 0 2 C0 1.34 0 0.68 0 0 Z " fill="#9A1303" transform="translate(83,206)"/>
<path d="M0 0 C2.1875 0.5625 2.1875 0.5625 4.1875 3.5625 C3.5275 4.2225 2.8675 4.8825 2.1875 5.5625 C2.1875 4.9025 2.1875 4.2425 2.1875 3.5625 C-2.00856557 6.13735842 -4.89523348 8.60335258 -7.8125 12.5625 C-8.4725 13.2225 -9.1325 13.8825 -9.8125 14.5625 C-10.1425 14.2325 -10.4725 13.9025 -10.8125 13.5625 C-10.8125 10.07512316 -10.6020969 7.53888326 -8.359375 4.765625 C-5.63314513 2.2764586 -3.65675585 0.73135117 0 0 Z " fill="#0B0B0B" transform="translate(30.8125,119.4375)"/>
<path d="M0 0 C0.66 0.33 1.32 0.66 2 1 C-1.90458716 7.4146789 -1.90458716 7.4146789 -6 9 C-6.99 9.66 -7.98 10.32 -9 11 C-11.04296875 11.4140625 -11.04296875 11.4140625 -13.1875 11.625 C-14.445625 11.74875 -15.70375 11.8725 -17 12 C-15.86494095 8.59482286 -15.4471812 8.37976225 -12.47265625 6.703125 C-11.76302734 6.30222656 -11.05339844 5.90132812 -10.32226562 5.48828125 C-9.57654297 5.07964844 -8.83082031 4.67101562 -8.0625 4.25 C-7.32064453 3.82589844 -6.57878906 3.40179688 -5.81445312 2.96484375 C-1.6907103 0.66930604 -1.6907103 0.66930604 0 0 Z " fill="#880B01" transform="translate(202,203)"/>
<path d="M0 0 C1.134375 0.020625 2.26875 0.04125 3.4375 0.0625 C2.82240238 2.71100284 2.19600592 5.35589905 1.5625 8 C1.38847656 8.75474609 1.21445313 9.50949219 1.03515625 10.28710938 C0.56505935 12.22843545 0.0070703 14.14799544 -0.5625 16.0625 C-1.2225 16.3925 -1.8825 16.7225 -2.5625 17.0625 C-2.75698477 14.93812788 -2.94288289 12.81296809 -3.125 10.6875 C-3.22941406 9.50414062 -3.33382812 8.32078125 -3.44140625 7.1015625 C-3.5625 4.0625 -3.5625 4.0625 -2.5625 2.0625 C-3.2225 1.7325 -3.8825 1.4025 -4.5625 1.0625 C-3.5625 0.0625 -3.5625 0.0625 0 0 Z " fill="#B72809" transform="translate(186.5625,176.9375)"/>
<path d="M0 0 C0.33 0 0.66 0 1 0 C1.02690104 2.79173055 1.04679053 5.58320348 1.0625 8.375 C1.07087891 9.1690625 1.07925781 9.963125 1.08789062 10.78125 C1.11328125 16.7734375 1.11328125 16.7734375 0 19 C-0.66 19 -1.32 19 -2 19 C-2.33 19.66 -2.66 20.32 -3 21 C-3 20.34 -3 19.68 -3 19 C-3.66 19 -4.32 19 -5 19 C-4.67 14.38 -4.34 9.76 -4 5 C-3.01 6.485 -3.01 6.485 -2 8 C-1.34 5.36 -0.68 2.72 0 0 Z " fill="#931003" transform="translate(182,181)"/>
<path d="M0 0 C3.13677627 1.56838814 3.53744438 4.66680859 4.625 7.8125 C4.85445312 8.44220703 5.08390625 9.07191406 5.3203125 9.72070312 C6.49367159 13.0487127 7 15.42142872 7 19 C4.75 19.0625 4.75 19.0625 2 18 C0.1893664 15.17158789 -1.12399098 12.24237104 -2 9 C-1.67 8.01 -1.34 7.02 -1 6 C-0.34 7.65 0.32 9.3 1 11 C0.67 7.37 0.34 3.74 0 0 Z " fill="#961203" transform="translate(128,218)"/>
<path d="M0 0 C1.32 0.33 2.64 0.66 4 1 C1.69 4.96 -0.62 8.92 -3 13 C-2.34 13.33 -1.68 13.66 -1 14 C-1.99 14.99 -2.98 15.98 -4 17 C-4 15.68 -4 14.36 -4 13 C-5.65 13.66 -7.3 14.32 -9 15 C-7.61219205 11.10993227 -5.7847773 8.03441292 -3.375 4.6875 C-2.74335938 3.80449219 -2.11171875 2.92148438 -1.4609375 2.01171875 C-0.97882813 1.34785156 -0.49671875 0.68398437 0 0 Z " fill="#961103" transform="translate(208,176)"/>
<path d="M0 0 C7.09635709 6.2229593 11.30326304 17.40887575 15.5625 25.75 C15.92110107 26.4411792 16.27970215 27.1323584 16.64916992 27.84448242 C17.49628416 29.53258921 18.25675892 31.26365333 19 33 C18.67 33.66 18.34 34.32 18 35 C15.93324796 31.37740898 13.87240016 27.75149089 11.8125 24.125 C11.23435547 23.11179688 10.65621094 22.09859375 10.06054688 21.0546875 C0 3.32084216 0 3.32084216 0 0 Z " fill="#D9D9D9" transform="translate(47,172)"/>
<path d="M0 0 C0 3.95551485 -1.41914707 5.47993994 -3.6875 8.6875 C-4.37199219 9.68136719 -5.05648437 10.67523438 -5.76171875 11.69921875 C-8 14 -8 14 -10.76953125 14.33203125 C-11.50558594 14.22246094 -12.24164063 14.11289063 -13 14 C-13 13.01 -13 12.02 -13 11 C-10.8763036 8.98423872 -8.77281034 7.14350625 -6.5 5.3125 C-5.87996094 4.80138672 -5.25992188 4.29027344 -4.62109375 3.76367188 C-3.08722544 2.50118027 -1.54443168 1.24954706 0 0 Z " fill="#FA3D0E" transform="translate(185,230)"/>
<path d="M0 0 C3.32017247 3.1042311 5.14151584 6.58273616 7.25 10.5625 C7.81460938 11.59020508 7.81460938 11.59020508 8.390625 12.63867188 C9.32665021 14.39199851 10.17109121 16.19356493 11 18 C10.67 18.66 10.34 19.32 10 20 C5.17281164 15.86240998 2.19406751 10.9753328 0 5 C-0.13671875 2.1875 -0.13671875 2.1875 0 0 Z " fill="#EF5F48" transform="translate(139,109)"/>
<path d="M0 0 C0.66 0.33 1.32 0.66 2 1 C0.43632643 4.52238047 -1.69495889 7.27123994 -4.125 10.25 C-4.84945312 11.14203125 -5.57390625 12.0340625 -6.3203125 12.953125 C-7.15175781 13.96632812 -7.15175781 13.96632812 -8 15 C-8.66 14.67 -9.32 14.34 -10 14 C-9.67 13.01 -9.34 12.02 -9 11 C-9.66 10.67 -10.32 10.34 -11 10 C-10.28972656 9.44570312 -9.57945312 8.89140625 -8.84765625 8.3203125 C-7.92855469 7.59585938 -7.00945312 6.87140625 -6.0625 6.125 C-5.14597656 5.40570313 -4.22945312 4.68640625 -3.28515625 3.9453125 C-0.93990515 2.20579164 -0.93990515 2.20579164 0 0 Z " fill="#8E0C02" transform="translate(162,215)"/>
<path d="M0 0 C0.66 0.33 1.32 0.66 2 1 C-1.465 8.425 -1.465 8.425 -5 16 C-5.66 16 -6.32 16 -7 16 C-7.75 13.875 -7.75 13.875 -8 11 C-6.73339467 8.95708818 -5.40113616 6.95309888 -4 5 C-4 4.01 -4 3.02 -4 2 C-2.125 0.9375 -2.125 0.9375 0 0 Z " fill="#891003" transform="translate(221,168)"/>
<path d="M0 0 C-0.0625 2.75 -0.0625 2.75 -1 6 C-4.01649801 8.55898289 -6.99133843 10 -11 10 C-9.15919405 5.21390453 -5.3291986 0 0 0 Z " fill="#880900" transform="translate(162,242)"/>
<path d="M0 0 C4.35121083 3.00952572 6.20584455 5.80201103 8.3125 10.625 C8.82425781 11.77226562 9.33601563 12.91953125 9.86328125 14.1015625 C11 17 11 17 11 19 C10.34 19 9.68 19 9 19 C7.4933028 16.2118978 5.99580196 13.41896042 4.5 10.625 C4.07074219 9.8309375 3.64148438 9.036875 3.19921875 8.21875 C2.79316406 7.45820313 2.38710937 6.69765625 1.96875 5.9140625 C1.40317383 4.8614624 1.40317383 4.8614624 0.82617188 3.78759766 C0 2 0 2 0 0 Z " fill="#8E0C02" transform="translate(112,216)"/>
<path d="M0 0 C0.33 0 0.66 0 1 0 C1.33 3.63 1.66 7.26 2 11 C-0.97 11 -3.94 11 -7 11 C-5.85845641 9.16399255 -4.71165684 7.33125195 -3.5625 5.5 C-2.92441406 4.4790625 -2.28632813 3.458125 -1.62890625 2.40625 C-0.82259766 1.21515625 -0.82259766 1.21515625 0 0 Z " fill="#4A4A4A" transform="translate(19,130)"/>
<path d="M0 0 C0.99 0 1.98 0 3 0 C3.4375 2.125 3.4375 2.125 3 5 C0.916878 7.33462754 -1.38711444 9.27975181 -4 11 C-4.66 11 -5.32 11 -6 11 C-4.75037104 6.5221629 -3.25851406 3.35725691 0 0 Z " fill="#FD3D0E" transform="translate(201,189)"/>
<path d="M0 0 C2.64 0 5.28 0 8 0 C7.00956295 4.83628305 6.04301154 9.47618873 4 14 C3.67 14 3.34 14 3 14 C1.57142857 5.57142857 1.57142857 5.57142857 4 1 C2.68 0.67 1.36 0.34 0 0 Z " fill="#9B1A06" transform="translate(186,176)"/>
<path d="M0 0 C-0.375 1.9375 -0.375 1.9375 -1 4 C-4.21451269 5.60725635 -7.43612536 5.05748185 -11 5 C-11.33 4.01 -11.66 3.02 -12 2 C-7.82262526 0.40861915 -4.46839215 -0.21278058 0 0 Z " fill="#880900" transform="translate(150,243)"/>
<path d="M0 0 C3.37251924 2.60603759 4.34793983 5.9377401 5 10 C5.15099977 13.34147889 5.12103741 16.65802271 5 20 C1.24448836 16.24448836 0.24492076 9.91905556 -0.19140625 4.71875 C-0.18818042 3.14454317 -0.1047149 1.57072351 0 0 Z " fill="#971303" transform="translate(142,187)"/>
<path d="M0 0 C5.44533141 4.88202127 7.27949127 9.79491268 8 17 C3.77891014 13.53267618 1.68958366 9.10469956 0 4 C0 2.68 0 1.36 0 0 Z " fill="#F96A51" transform="translate(157,102)"/>
<path d="M0 0 C2.375 0.875 2.375 0.875 5 3 C6.80428494 8.14085205 7.28539947 13.57741009 7 19 C4.85357551 15.78036326 3.64118646 12.55570141 2.375 8.9375 C2.14554687 8.30005859 1.91609375 7.66261719 1.6796875 7.00585938 C0 2.261742 0 2.261742 0 0 Z " fill="#950E02" transform="translate(80,178)"/>
<path d="M0 0 C3 3.75 3 3.75 3 6 C3.66 6 4.32 6 5 6 C6.125 12.75 6.125 12.75 5 15 C3.96427104 13.25877451 2.9468748 11.50663405 1.9375 9.75 C1.08478516 8.28820312 1.08478516 8.28820312 0.21484375 6.796875 C-1 4 -1 4 -0.68359375 1.640625 C-0.45800781 1.09921875 -0.23242188 0.5578125 0 0 Z " fill="#951003" transform="translate(79,188)"/>
<path d="M0 0 C2.875 0.25 2.875 0.25 6 1 C7.4375 2.875 7.4375 2.875 8 5 C7.67 5.99 7.34 6.98 7 8 C2.545 6.02 2.545 6.02 -2 4 C-1.33333333 2.66666667 -0.66666667 1.33333333 0 0 Z " fill="#AC1C06" transform="translate(94,213)"/>
<path d="M0 0 C3.68006822 3.38168431 5.9785845 6.42521756 8 11 C7.01 11 6.02 11 5 11 C3.61328125 9.609375 3.61328125 9.609375 2.3125 7.75 C1.87550781 7.14671875 1.43851562 6.5434375 0.98828125 5.921875 C0 4 0 4 0 0 Z " fill="#FA2B09" transform="translate(108,206)"/>
<path d="M0 0 C2.75508074 1.21223553 5.20921437 2.74451475 7.6875 4.4375 C8.28949219 4.84871094 8.89148438 5.25992188 9.51171875 5.68359375 C11 7 11 7 12 10 C8.56072421 8.7580393 5.74792181 7.44259716 3 5 C3 4.34 3 3.68 3 3 C2.01 2.67 1.02 2.34 0 2 C0 1.34 0 0.68 0 0 Z " fill="#8D0C02" transform="translate(83,206)"/>
<path d="M0 0 C2 2 2 2 4 5 C4.66 5 5.32 5 6 5 C6.33 7.64 6.66 10.28 7 13 C5.1875 12.5 5.1875 12.5 3 11 C1.14053309 7.39776912 0 4.06166652 0 0 Z " fill="#9F1805" transform="translate(126,224)"/>
<path d="M0 0 C2.26562673 2.26562673 2.94462749 3.84160705 3.09765625 7.04296875 C3.06510417 9.02864583 3.03255208 11.01432292 3 13 C1 12 1 12 0.375 10.4375 C-0.16368951 6.93601819 -0.05903219 3.54193167 0 0 Z " fill="#FB390D" transform="translate(122,194)"/>
<path d="M0 0 C0.66 0.33 1.32 0.66 2 1 C-0.10148204 4.98175544 -2.36905358 7.35039045 -6 10 C-6.66 9.67 -7.32 9.34 -8 9 C-5.36 6.03 -2.72 3.06 0 0 Z " fill="#F93F0F" transform="translate(161,213)"/>
<path d="M0 0 C0.33 0.99 0.66 1.98 1 3 C1.66 3 2.32 3 3 3 C4.20628008 5.33214148 5.1654738 7.49642139 6 10 C5.01 10.495 5.01 10.495 4 11 C4 10.34 4 9.68 4 9 C3.34 9 2.68 9 2 9 C0.50178941 5.62902617 0 3.79557881 0 0 Z " fill="#A71D06" transform="translate(148,196)"/>
<path d="M0 0 C0.33 0 0.66 0 1 0 C1 4.62 1 9.24 1 14 C0.01 14.495 0.01 14.495 -1 15 C-2.125 11.25 -2.125 11.25 -1 9 C-0.77532169 7.46331135 -0.59203195 5.92031946 -0.4375 4.375 C-0.35371094 3.55773437 -0.26992187 2.74046875 -0.18359375 1.8984375 C-0.12300781 1.27195313 -0.06242188 0.64546875 0 0 Z " fill="#A11A05" transform="translate(155,184)"/>
<path d="M0 0 C0.99 0 1.98 0 3 0 C2.71758359 1.46015291 2.42373386 2.91809793 2.125 4.375 C1.96257812 5.18710938 1.80015625 5.99921875 1.6328125 6.8359375 C1 9 1 9 -1 11 C-0.67 7.37 -0.34 3.74 0 0 Z " fill="#B32609" transform="translate(191,176)"/>
<path d="M0 0 C4.43458973 1.3937282 6.87378374 3.60582235 10 7 C5.56541027 5.6062718 3.12621626 3.39417765 0 0 Z " fill="#F52507" transform="translate(113,239)"/>
<path d="M0 0 C0.33 0 0.66 0 1 0 C0.88637738 1.4800841 0.75877092 2.95910074 0.625 4.4375 C0.52058594 5.67306641 0.52058594 5.67306641 0.4140625 6.93359375 C0.27742187 7.61550781 0.14078125 8.29742187 0 9 C-0.99 9.495 -0.99 9.495 -2 10 C-1.85950482 8.52031676 -1.71245174 7.04125484 -1.5625 5.5625 C-1.48128906 4.73878906 -1.40007812 3.91507813 -1.31640625 3.06640625 C-1 1 -1 1 0 0 Z " fill="#FB3C0E" transform="translate(186,184)"/>
<path d="M0 0 C1.9375 0.625 1.9375 0.625 4 2 C4.75 5.125 4.75 5.125 5 8 C4.01 8 3.02 8 2 8 C0.74335022 5.09399739 0 3.20395416 0 0 Z " fill="#9E1604" transform="translate(76,179)"/>
<path d="M0 0 C0.33 1.32 0.66 2.64 1 4 C0.360625 4.268125 -0.27875 4.53625 -0.9375 4.8125 C-3.33131686 5.88667752 -3.33131686 5.88667752 -4 9 C-4.66 8.67 -5.32 8.34 -6 8 C-4.02 5.36 -2.04 2.72 0 0 Z " fill="#606060" transform="translate(18,132)"/>
<path d="M0 0 C0.66 0 1.32 0 2 0 C3.7143618 1.95927063 5.38405168 3.95880212 7 6 C6.01 6.66 5.02 7.32 4 8 C0 2.25 0 2.25 0 0 Z " fill="#4F4F4F" transform="translate(35,122)"/>
<path d="M0 0 C2.99324263 1.0975223 3.84610901 1.67682892 5.25 4.625 C5.4975 5.40875 5.745 6.1925 6 7 C3.53199953 5.84826645 1.95216435 4.95216435 0 3 C0 2.01 0 1.02 0 0 Z " fill="#940E02" transform="translate(106,209)"/>
<path d="M0 0 C1.65 0.99 3.3 1.98 5 3 C4.67 5.31 4.34 7.62 4 10 C1.81024227 6.71536341 1.00193437 3.79303725 0 0 Z " fill="#A31905" transform="translate(80,178)"/>
</svg>
